<svg xmlns="http://www.w3.org/2000/svg" viewBox="0 0 32 32" width="512" height="512" shape-rendering="crispEdges">
  <!-- Hivemind Logo Mark: Pixel-art beehive with network nodes -->
  <!-- 4 colors: #6366F1 primary, #818CF8 highlight, #1E1B4B shadow, #A78BFA node glow -->
  
  <!-- Beehive body - hexagonal shape built from pixels -->
  <!-- Shadow/base layer -->
  <rect x="12" y="2" width="2" height="2" fill="#1E1B4B"/>
  <rect x="14" y="2" width="2" height="2" fill="#1E1B4B"/>
  <rect x="16" y="2" width="2" height="2" fill="#1E1B4B"/>
  <rect x="18" y="2" width="2" height="2" fill="#1E1B4B"/>
  
  <rect x="10" y="4" width="2" height="2" fill="#1E1B4B"/>
  <rect x="12" y="4" width="2" height="2" fill="#6366F1"/>
  <rect x="14" y="4" width="2" height="2" fill="#6366F1"/>
  <rect x="16" y="4" width="2" height="2" fill="#6366F1"/>
  <rect x="18" y="4" width="2" height="2" fill="#6366F1"/>
  <rect x="20" y="4" width="2" height="2" fill="#1E1B4B"/>

  <rect x="8" y="6" width="2" height="2" fill="#1E1B4B"/>
  <rect x="10" y="6" width="2" height="2" fill="#6366F1"/>
  <rect x="12" y="6" width="2" height="2" fill="#818CF8"/>
  <rect x="14" y="6" width="2" height="2" fill="#6366F1"/>
  <rect x="16" y="6" width="2" height="2" fill="#818CF8"/>
  <rect x="18" y="6" width="2" height="2" fill="#6366F1"/>
  <rect x="20" y="6" width="2" height="2" fill="#6366F1"/>
  <rect x="22" y="6" width="2" height="2" fill="#1E1B4B"/>

  <!-- Middle rows - honeycomb cells -->
  <rect x="6" y="8" width="2" height="2" fill="#1E1B4B"/>
  <rect x="8" y="8" width="2" height="2" fill="#6366F1"/>
  <rect x="10" y="8" width="2" height="2" fill="#818CF8"/>
  <rect x="12" y="8" width="2" height="2" fill="#1E1B4B"/>
  <rect x="14" y="8" width="2" height="2" fill="#818CF8"/>
  <rect x="16" y="8" width="2" height="2" fill="#1E1B4B"/>
  <rect x="18" y="8" width="2" height="2" fill="#818CF8"/>
  <rect x="20" y="8" width="2" height="2" fill="#6366F1"/>
  <rect x="22" y="8" width="2" height="2" fill="#6366F1"/>
  <rect x="24" y="8" width="2" height="2" fill="#1E1B4B"/>

  <rect x="6" y="10" width="2" height="2" fill="#1E1B4B"/>
  <rect x="8" y="10" width="2" height="2" fill="#6366F1"/>
  <rect x="10" y="10" width="2" height="2" fill="#6366F1"/>
  <rect x="12" y="10" width="2" height="2" fill="#818CF8"/>
  <rect x="14" y="10" width="2" height="2" fill="#6366F1"/>
  <rect x="16" y="10" width="2" height="2" fill="#818CF8"/>
  <rect x="18" y="10" width="2" height="2" fill="#6366F1"/>
  <rect x="20" y="10" width="2" height="2" fill="#818CF8"/>
  <rect x="22" y="10" width="2" height="2" fill="#6366F1"/>
  <rect x="24" y="10" width="2" height="2" fill="#1E1B4B"/>

  <rect x="6" y="12" width="2" height="2" fill="#1E1B4B"/>
  <rect x="8" y="12" width="2" height="2" fill="#6366F1"/>
  <rect x="10" y="12" width="2" height="2" fill="#818CF8"/>
  <rect x="12" y="12" width="2" height="2" fill="#1E1B4B"/>
  <rect x="14" y="12" width="2" height="2" fill="#A78BFA"/>
  <rect x="16" y="12" width="2" height="2" fill="#A78BFA"/>
  <rect x="18" y="12" width="2" height="2" fill="#1E1B4B"/>
  <rect x="20" y="12" width="2" height="2" fill="#818CF8"/>
  <rect x="22" y="12" width="2" height="2" fill="#6366F1"/>
  <rect x="24" y="12" width="2" height="2" fill="#1E1B4B"/>

  <rect x="6" y="14" width="2" height="2" fill="#1E1B4B"/>
  <rect x="8" y="14" width="2" height="2" fill="#6366F1"/>
  <rect x="10" y="14" width="2" height="2" fill="#6366F1"/>
  <rect x="12" y="14" width="2" height="2" fill="#818CF8"/>
  <rect x="14" y="14" width="2" height="2" fill="#6366F1"/>
  <rect x="16" y="14" width="2" height="2" fill="#6366F1"/>
  <rect x="18" y="14" width="2" height="2" fill="#818CF8"/>
  <rect x="20" y="14" width="2" height="2" fill="#6366F1"/>
  <rect x="22" y="14" width="2" height="2" fill="#6366F1"/>
  <rect x="24" y="14" width="2" height="2" fill="#1E1B4B"/>

  <rect x="6" y="16" width="2" height="2" fill="#1E1B4B"/>
  <rect x="8" y="16" width="2" height="2" fill="#6366F1"/>
  <rect x="10" y="16" width="2" height="2" fill="#818CF8"/>
  <rect x="12" y="16" width="2" height="2" fill="#1E1B4B"/>
  <rect x="14" y="16" width="2" height="2" fill="#818CF8"/>
  <rect x="16" y="16" width="2" height="2" fill="#1E1B4B"/>
  <rect x="18" y="16" width="2" height="2" fill="#818CF8"/>
  <rect x="20" y="16" width="2" height="2" fill="#6366F1"/>
  <rect x="22" y="16" width="2" height="2" fill="#6366F1"/>
  <rect x="24" y="16" width="2" height="2" fill="#1E1B4B"/>

  <rect x="6" y="18" width="2" height="2" fill="#1E1B4B"/>
  <rect x="8" y="18" width="2" height="2" fill="#6366F1"/>
  <rect x="10" y="18" width="2" height="2" fill="#6366F1"/>
  <rect x="12" y="18" width="2" height="2" fill="#818CF8"/>
  <rect x="14" y="18" width="2" height="2" fill="#6366F1"/>
  <rect x="16" y="18" width="2" height="2" fill="#818CF8"/>
  <rect x="18" y="18" width="2" height="2" fill="#6366F1"/>
  <rect x="20" y="18" width="2" height="2" fill="#818CF8"/>
  <rect x="22" y="18" width="2" height="2" fill="#6366F1"/>
  <rect x="24" y="18" width="2" height="2" fill="#1E1B4B"/>

  <!-- Lower taper -->
  <rect x="8" y="20" width="2" height="2" fill="#1E1B4B"/>
  <rect x="10" y="20" width="2" height="2" fill="#6366F1"/>
  <rect x="12" y="20" width="2" height="2" fill="#818CF8"/>
  <rect x="14" y="20" width="2" height="2" fill="#1E1B4B"/>
  <rect x="16" y="20" width="2" height="2" fill="#818CF8"/>
  <rect x="18" y="20" width="2" height="2" fill="#1E1B4B"/>
  <rect x="20" y="20" width="2" height="2" fill="#6366F1"/>
  <rect x="22" y="20" width="2" height="2" fill="#1E1B4B"/>

  <rect x="10" y="22" width="2" height="2" fill="#1E1B4B"/>
  <rect x="12" y="22" width="2" height="2" fill="#6366F1"/>
  <rect x="14" y="22" width="2" height="2" fill="#6366F1"/>
  <rect x="16" y="22" width="2" height="2" fill="#6366F1"/>
  <rect x="18" y="22" width="2" height="2" fill="#6366F1"/>
  <rect x="20" y="22" width="2" height="2" fill="#1E1B4B"/>

  <!-- Bottom opening -->
  <rect x="12" y="24" width="2" height="2" fill="#1E1B4B"/>
  <rect x="14" y="24" width="2" height="2" fill="#6366F1"/>
  <rect x="16" y="24" width="2" height="2" fill="#6366F1"/>
  <rect x="18" y="24" width="2" height="2" fill="#1E1B4B"/>

  <rect x="14" y="26" width="2" height="2" fill="#1E1B4B"/>
  <rect x="16" y="26" width="2" height="2" fill="#1E1B4B"/>

  <!-- Network nodes - small bright dots at honeycomb intersections -->
  <rect x="4" y="4" width="2" height="2" fill="#A78BFA"/>
  <rect x="26" y="4" width="2" height="2" fill="#A78BFA"/>
  <rect x="2" y="12" width="2" height="2" fill="#A78BFA"/>
  <rect x="28" y="12" width="2" height="2" fill="#A78BFA"/>
  <rect x="4" y="22" width="2" height="2" fill="#A78BFA"/>
  <rect x="26" y="20" width="2" height="2" fill="#A78BFA"/>

  <!-- Connection lines from nodes to hive body (1px) -->
  <rect x="6" y="5" width="4" height="1" fill="#A78BFA" opacity="0.5"/>
  <rect x="22" y="5" width="4" height="1" fill="#A78BFA" opacity="0.5"/>
  <rect x="4" y="13" width="2" height="1" fill="#A78BFA" opacity="0.5"/>
  <rect x="26" y="13" width="2" height="1" fill="#A78BFA" opacity="0.5"/>
  <rect x="6" y="22" width="4" height="1" fill="#A78BFA" opacity="0.4"/>
  <rect x="22" y="21" width="4" height="1" fill="#A78BFA" opacity="0.4"/>
</svg>